<?xml version="1.0" encoding="UTF-8" standalone="no"?>
<!-- Created with Inkscape (http://www.inkscape.org/) -->

<svg
   xmlns:dc="http://purl.org/dc/elements/1.1/"
   xmlns:cc="http://creativecommons.org/ns#"
   xmlns:rdf="http://www.w3.org/1999/02/22-rdf-syntax-ns#"
   xmlns:svg="http://www.w3.org/2000/svg"
   xmlns="http://www.w3.org/2000/svg"
   xmlns:xlink="http://www.w3.org/1999/xlink"
   xmlns:sodipodi="http://sodipodi.sourceforge.net/DTD/sodipodi-0.dtd"
   xmlns:inkscape="http://www.inkscape.org/namespaces/inkscape"
   width="90.311111mm"
   height="90.311111mm"
   viewBox="0 0 90.311111 90.311111"
   version="1.1"
   id="svg4590"
   inkscape:version="0.92.5 (2060ec1f9f, 2020-04-08)"
   sodipodi:docname="drawing.svg">
  <defs
     id="defs4584">
    <linearGradient
       gradientTransform="matrix(0.26458333,0,0,0.26458333,223.26527,-81.474761)"
       inkscape:collect="always"
       xlink:href="#linearGradient4567"
       id="linearGradient4569"
       x1="468.35324"
       y1="566.83673"
       x2="805.34998"
       y2="261.73535"
       gradientUnits="userSpaceOnUse" />
    <linearGradient
       inkscape:collect="always"
       id="linearGradient4567">
      <stop
         style="stop-color:#5400aa;stop-opacity:1"
         offset="0"
         id="stop4563" />
      <stop
         style="stop-color:#000000;stop-opacity:0;"
         offset="1"
         id="stop4565" />
    </linearGradient>
  </defs>
  <sodipodi:namedview
     id="base"
     pagecolor="#ffffff"
     bordercolor="#666666"
     borderopacity="1.0"
     inkscape:pageopacity="0.0"
     inkscape:pageshadow="2"
     inkscape:zoom="3.959798"
     inkscape:cx="123.51726"
     inkscape:cy="187.32238"
     inkscape:document-units="mm"
     inkscape:current-layer="layer1"
     showgrid="false"
     fit-margin-top="0"
     fit-margin-left="0"
     fit-margin-right="0"
     fit-margin-bottom="0"
     inkscape:window-width="3840"
     inkscape:window-height="2032"
     inkscape:window-x="0"
     inkscape:window-y="54"
     inkscape:window-maximized="1" />
  <metadata
     id="metadata4587">
    <rdf:RDF>
      <cc:Work
         rdf:about="">
        <dc:format>image/svg+xml</dc:format>
        <dc:type
           rdf:resource="http://purl.org/dc/dcmitype/StillImage" />
        <dc:title></dc:title>
      </cc:Work>
    </rdf:RDF>
  </metadata>
  <g
     inkscape:label="Layer 1"
     inkscape:groupmode="layer"
     id="layer1"
     transform="translate(-347.18373,21.810318)">
    <rect
       style="fill:#f5ffff;fill-opacity:1;stroke:none;stroke-width:0.58409816;stroke-miterlimit:4;stroke-dasharray:none"
       id="rect5168"
       width="90.31115"
       height="90.311111"
       x="347.18372"
       y="-21.810318" />
    <path
       style="fill:url(#linearGradient4569);fill-opacity:1;stroke:none;stroke-width:0.35277778"
       d="m 347.18373,23.345238 v -45.155556 h 45.15556 45.15555 v 45.155556 45.155557 h -45.15555 -45.15556 z m 42.20457,41.783305 c 1.332,-0.33182 2.50119,-0.715031 2.59821,-0.851578 0.19137,-0.269356 6.59835,-2.132343 7.32014,-2.128512 0.24253,0.0013 0.44097,-0.165777 0.44097,-0.371258 0,-0.205478 0.1657,-0.271187 0.36823,-0.146018 0.20253,0.125169 0.55972,0.07253 0.79375,-0.116978 0.23404,-0.189507 2.01302,-0.761862 3.9533,-1.271897 1.94028,-0.510034 3.80381,-1.083259 4.1412,-1.273839 0.33737,-0.190576 2.39498,-0.830913 4.57245,-1.422977 2.17748,-0.59206 4.12393,-1.208791 4.32547,-1.370509 0.20154,-0.161722 1.71581,-0.639472 3.36505,-1.061665 1.64923,-0.422198 3.40676,-0.969518 3.90562,-1.216266 0.49885,-0.24675 2.36417,-0.828807 4.14514,-1.293463 1.78097,-0.464653 3.23812,-0.974624 3.23812,-1.133269 0,-0.158644 -0.49836,-0.558874 -1.10746,-0.889399 -0.6091,-0.330525 -2.95067,-1.804816 -5.20347,-3.276206 -7.33603,-4.791421 -8.06959,-5.248018 -8.99919,-5.601449 -0.50471,-0.191891 -0.91765,-0.493482 -0.91765,-0.670205 0,-0.176721 -0.59532,-0.600856 -1.32292,-0.942517 -0.72761,-0.341662 -2.1822,-1.232874 -3.23243,-1.980473 -1.05023,-0.747601 -2.03849,-1.35927 -2.19613,-1.35927 -0.15764,0 -1.75898,-0.996609 -3.55854,-2.214679 -1.79956,-1.218076 -3.97698,-2.58073 -4.83871,-3.028122 l -1.56678,-0.813438 -3.37211,0.59666 c -1.85466,0.32816 -3.50181,0.7172 -3.66033,0.864534 -0.40762,0.378849 0.88169,12.664027 1.40264,13.364945 0.35134,0.472726 0.55692,0.501362 1.12254,0.156364 0.38083,-0.232286 1.70019,-0.675164 2.9319,-0.984166 2.12647,-0.533468 3.10217,-0.831916 4.70892,-1.44037 0.38806,-0.14695 0.78493,-0.294603 0.88195,-0.328118 0.43489,-0.150241 1.65726,-0.614468 2.39784,-0.910643 1.06487,-0.425865 2.44435,-0.413163 2.71515,0.025 0.18974,0.30701 -3.19384,2.124139 -3.94386,2.118022 -0.55914,-0.0046 -6.99263,1.883619 -7.16636,2.103265 -0.097,0.122661 -1.76389,0.66919 -3.70416,1.214506 -1.94028,0.545317 -3.76591,1.080284 -4.05695,1.18881 -0.29104,0.10853 -0.60854,0.224341 -0.70555,0.257355 -0.097,0.03302 -0.57327,0.225933 -1.05834,0.428705 -0.48507,0.202771 -2.15194,0.722527 -3.70416,1.155012 -1.55223,0.432482 -2.98098,0.91377 -3.175,1.06953 -0.31067,0.249378 -4.342,1.404594 -4.90162,1.404594 -0.11751,0 -0.21366,-0.242054 -0.21366,-0.537898 0,-0.519705 1.60713,-1.418508 2.26072,-1.264338 0.17625,0.04158 0.41438,-0.06588 0.52917,-0.238802 0.20895,-0.314741 6.52175,-2.199048 7.35247,-2.194637 0.24253,0.0013 0.44097,-0.173389 0.44097,-0.388178 0,-0.214786 0.23304,-0.301096 0.51787,-0.191797 0.28483,0.1093 0.59802,0.06903 0.69599,-0.08947 0.098,-0.158506 1.13492,-0.556662 2.30435,-0.884788 1.16943,-0.328125 2.12592,-0.707443 2.12553,-0.842922 -2.6e-4,-0.135483 -1.73966,-2.267223 -3.86506,-4.737201 -2.6799,-3.114381 -3.98017,-4.920977 -4.24221,-5.894131 -0.20783,-0.771795 -0.49479,-1.475531 -0.6377,-1.563857 -0.32306,-0.199657 -7.0478,1.103212 -8.01127,1.552126 -0.38805,0.180808 -2.61055,0.738467 -4.93889,1.239239 -2.32833,0.500772 -4.47146,1.004112 -4.7625,1.118529 -0.91755,0.360714 -1.14956,0.421502 -5.11527,1.340239 -2.13431,0.494453 -4.11869,0.998834 -4.40973,1.120843 -0.29104,0.12201 -0.67911,0.186339 -0.86239,0.14295 -0.18326,-0.04338 -0.65951,0.07114 -1.05833,0.254492 -0.39881,0.183356 -1.09612,0.475985 -1.54958,0.650282 -0.78704,0.302519 -0.73486,0.380503 1.14954,1.717974 1.08571,0.770591 2.72672,1.969992 3.64669,2.665344 0.91998,0.695349 1.91081,1.357791 2.20185,1.472091 0.29104,0.114303 2.11667,1.409692 4.05695,2.878646 1.94027,1.468953 3.72062,2.671823 3.95633,2.673045 0.23571,0.0011 0.59848,0.319723 0.80617,0.707779 0.20768,0.388057 0.5478,0.705557 0.75583,0.705557 0.20802,0 1.82962,1.085598 3.60355,2.412441 1.77394,1.326844 3.60859,2.636531 4.07701,2.910417 0.46842,0.273886 2.67552,1.815325 4.90468,3.42542 2.22915,1.61009 4.24858,2.852394 4.48761,2.760668 0.23904,-0.09173 1.52444,-0.438266 2.85644,-0.770088 z m -3.20756,-6.481149 c -0.11163,-0.180623 -0.002,-0.458436 0.24376,-0.61736 0.63695,-0.412004 5.62229,-2.099945 8.73701,-2.958187 1.45521,-0.400971 3.11658,-0.961507 3.69194,-1.245627 0.57536,-0.284123 2.55973,-0.926579 4.40972,-1.427681 1.84999,-0.5011 3.68112,-0.998228 4.06917,-1.104723 0.38806,-0.106497 0.78493,-0.29509 0.88195,-0.419089 0.097,-0.124002 1.68451,-0.670867 3.52777,-1.215258 1.84327,-0.544391 3.51014,-1.113599 3.70417,-1.264904 0.19403,-0.15131 1.02747,-0.386384 1.85209,-0.522391 1.14438,-0.188746 1.4993,-0.134768 1.4993,0.228031 0,0.747538 -1.1284,1.274609 -4.84118,2.261307 -1.897,0.504145 -3.60785,1.044091 -3.80188,1.199888 -0.19402,0.155797 -1.8609,0.710168 -3.70416,1.231929 -1.84327,0.521766 -3.82764,1.162706 -4.40972,1.424318 -0.58209,0.26161 -2.56646,0.903134 -4.40973,1.425607 -1.84326,0.522473 -3.51502,1.079706 -3.715,1.238298 -0.30991,0.245758 -6.78991,2.094243 -7.34152,2.094243 -0.1049,0 -0.28206,-0.147783 -0.39369,-0.328401 z m -6.10508,-3.050458 c -0.57421,-0.42291 -0.56837,-0.466069 0.0928,-0.685959 2.24921,-0.748038 2.89186,-0.974889 3.52777,-1.245277 0.38806,-0.164999 2.37244,-0.788734 4.40973,-1.386078 2.03729,-0.597345 3.94229,-1.215917 4.23333,-1.374611 0.29104,-0.158689 2.11667,-0.735208 4.05694,-1.281157 1.94028,-0.545944 3.62171,-1.134103 3.7365,-1.307021 0.1148,-0.172918 0.35292,-0.280376 0.52917,-0.238802 0.17624,0.04157 0.76141,-0.106543 1.30036,-0.329142 0.53895,-0.222602 2.20943,-0.718653 3.71218,-1.102339 1.50275,-0.383685 3.21897,-0.940411 3.81384,-1.23717 0.59486,-0.296757 1.59952,-0.643149 2.23258,-0.769763 0.96618,-0.193233 1.13111,-0.133123 1.02708,0.374348 -0.17133,0.83579 -1.33956,1.393624 -5.23921,2.501741 -1.84326,0.52378 -3.54287,1.107739 -3.7769,1.297689 -0.23404,0.18995 -0.59122,0.242951 -0.79375,0.117782 -0.20253,-0.125169 -0.36823,-0.05946 -0.36823,0.146018 0,0.205481 -0.22037,0.3736 -0.4897,0.3736 -0.69184,0 -6.53005,1.695728 -7.80058,2.265704 -0.58209,0.26113 -2.32834,0.842153 -3.88056,1.291164 -1.55222,0.449011 -2.87546,0.944644 -2.94054,1.101399 -0.0651,0.156761 -0.26352,0.195284 -0.44098,0.08561 -0.17745,-0.10967 -0.52108,-0.073 -0.76362,0.0815 -0.24253,0.154496 -1.59398,0.616416 -3.00321,1.026486 -2.1204,0.617014 -2.6679,0.667761 -3.175,0.29428 z m 6.61918,-20.593449 c 0,-0.184907 0.57805,-0.495803 1.28456,-0.690878 0.70651,-0.195074 1.65901,-0.706461 2.11667,-1.136409 0.82069,-0.771001 1.11734,-2.204704 0.53114,-2.566993 -0.16553,-0.102301 -0.5852,-1.103857 -0.9326,-2.22568 -0.34741,-1.121823 -0.92128,-2.674678 -1.27527,-3.450789 -0.354,-0.77611 -1.18569,-2.919235 -1.84821,-4.7625 -2.00275,-5.572095 -3.39724,-9.290663 -3.90266,-10.4069434 -0.26355,-0.582083 -0.91725,-2.328333 -1.45266,-3.880557 -0.53541,-1.552223 -1.10139,-2.987881 -1.25774,-3.190351 -0.15635,-0.202472 -0.70601,-1.710597 -1.22147,-3.351389 -0.51546,-1.640793 -1.07429,-3.152778 -1.24184,-3.359965 -0.16755,-0.20719 -0.80828,-1.874065 -1.42385,-3.704167 -0.61556,-1.830104 -1.21629,-3.4068356 -1.33494,-3.5038506 -0.11865,-0.09701 -0.43348,-0.811387 -0.69963,-1.5875 -0.26614,-0.77611 -0.64192,-1.609548 -0.83506,-1.852083 -0.41687,-0.523489 -2.38144,-0.596244 -2.38144,-0.08819 0,0.194027 -0.19844,0.350057 -0.44097,0.346731 -0.67753,-0.0093 -3.76317,1.552173 -3.77866,1.91216 -0.007,0.175239 0.46255,1.3266 1.04463,2.5585816 0.58209,1.231979 1.05834,2.404912 1.05834,2.606514 0,0.201601 0.45525,1.352116 1.01167,2.556697 0.55642,1.204582 1.3387,3.14265 1.7384,4.306816 0.3997,1.164167 1.13508,3.034007 1.63416,4.1552 0.49909,1.12119 0.90743,2.199372 0.90743,2.395958 0,0.196588 0.45525,1.342998 1.01167,2.54758 0.55642,1.204585 1.3563,3.2006674 1.7775,4.4357454 0.42121,1.235075 1.05257,2.822575 1.40302,3.527777 0.35046,0.705202 1.01602,2.393434 1.47901,3.75163 0.463,1.358194 0.93699,2.548819 1.0533,2.645834 0.11632,0.09701 0.66207,1.446387 1.21279,2.99861 0.55072,1.552223 1.13409,2.99825 1.29638,3.213399 0.16229,0.215146 0.59498,1.247021 0.96154,2.293056 1.18608,3.384664 1.42029,3.842155 1.96689,3.842155 0.29585,0 0.5379,-0.151289 0.5379,-0.336195 z M 372.942,-7.4346224 c -0.20597,-0.824619 -0.54349,-1.79723 -0.75006,-2.161363 -0.28677,-0.5055146 -0.24374,-0.7938816 0.18198,-1.2196016 0.35259,-0.352591 0.67774,-0.433424 0.88452,-0.21989 0.43718,0.451464 1.45525,4.4404726 1.22739,4.8091566 -0.46285,0.748908 -1.19886,0.172866 -1.54383,-1.208302 z"
       id="path4547"
       inkscape:connector-curvature="0" />
  </g>
</svg>
