<?xml version="1.0" encoding="UTF-8" standalone="no"?>
<svg
   xmlns:osb="http://www.openswatchbook.org/uri/2009/osb"
   xmlns:dc="http://purl.org/dc/elements/1.1/"
   xmlns:cc="http://creativecommons.org/ns#"
   xmlns:rdf="http://www.w3.org/1999/02/22-rdf-syntax-ns#"
   xmlns:svg="http://www.w3.org/2000/svg"
   xmlns="http://www.w3.org/2000/svg"
   xmlns:xlink="http://www.w3.org/1999/xlink"
   xmlns:sodipodi="http://sodipodi.sourceforge.net/DTD/sodipodi-0.dtd"
   xmlns:inkscape="http://www.inkscape.org/namespaces/inkscape"
   width="89.353874mm"
   height="60.916016mm"
   viewBox="0 0 89.353874 60.916016"
   version="1.1"
   id="svg5440"
   inkscape:version="1.0.2 (e86c870879, 2021-01-15)"
   sodipodi:docname="logo.svg">
  <sodipodi:namedview
     pagecolor="#ffffff"
     bordercolor="#666666"
     borderopacity="1"
     objecttolerance="10"
     gridtolerance="10"
     guidetolerance="10"
     inkscape:pageopacity="0"
     inkscape:pageshadow="2"
     inkscape:window-width="1510"
     inkscape:window-height="752"
     id="namedview867"
     showgrid="false"
     inkscape:zoom="1.6185622"
     inkscape:cx="139.40604"
     inkscape:cy="70.670778"
     inkscape:window-x="135"
     inkscape:window-y="114"
     inkscape:window-maximized="0"
     inkscape:current-layer="layer1" />
  <defs
     id="defs5434">
    <linearGradient
       id="ArduinoColor"
       osb:paint="solid">
      <stop
         style="stop-color:#00979c;stop-opacity:1;"
         offset="0"
         id="stop869" />
    </linearGradient>
    <linearGradient
       inkscape:collect="always"
       xlink:href="#ArduinoColor"
       id="ArduinoSwatch"
       x1="56.223465"
       y1="129.76888"
       x2="145.57735"
       y2="129.76888"
       gradientUnits="userSpaceOnUse" />
  </defs>
  <metadata
     id="metadata5437">
    <rdf:RDF>
      <cc:Work
         rdf:about="">
        <dc:format>image/svg+xml</dc:format>
        <dc:type
           rdf:resource="http://purl.org/dc/dcmitype/StillImage" />
        <dc:title />
      </cc:Work>
    </rdf:RDF>
  </metadata>
  <g
     inkscape:label="Layer 1"
     inkscape:groupmode="layer"
     id="layer1"
     transform="translate(-56.223464,-99.310865)">
    <path
       style="fill:url(#ArduinoSwatch);stroke-width:0.264583;fill-opacity:1.0"
       d="m 98.420474,159.60351 -1.17449,-0.59531 -0.53522,-0.92604 -0.53522,-0.92604 -0.0885,-5.75469 -0.0885,-5.75469 h 1.46273 1.46272 l 0.081,5.54948 0.081,5.54948 0.57685,0.57627 0.576856,0.57628 1.23185,0.0258 1.23186,0.0258 0.63868,-0.74235 0.63869,-0.74234 v -5.4092 -5.40921 h 1.45521 1.45521 l -0.006,5.35781 -0.006,5.35782 -0.48599,1.05833 -0.48599,1.05833 -0.51007,0.45293 -0.51007,0.45293 -0.97401,0.40697 -0.974,0.40696 h -1.67223 -1.672226 l -1.17449,-0.59531 z m 38.413136,0.0418 -1.1461,-0.58148 -0.64554,-0.97547 -0.64554,-0.97548 -0.27036,-0.9044 -0.27035,-0.90441 -0.0173,-2.25457 -0.0173,-2.25458 0.33582,-1.12087 0.33582,-1.12086 0.91012,-1.06327 0.91011,-1.06327 0.83334,-0.43932 0.83334,-0.43932 1.85209,-0.0112 1.85208,-0.0112 0.85143,0.45993 0.85143,0.45993 0.66962,0.72216 0.66963,0.72216 0.4257,1.28165 0.42569,1.28165 -0.10003,2.82242 -0.10004,2.82242 -0.65609,1.17888 -0.65609,1.17887 -1.14115,0.8012 -1.14116,0.8012 -1.90155,0.0844 -1.90156,0.0844 -1.1461,-0.58148 z m 4.16916,-2.21441 0.74781,-0.38671 0.42967,-1.07385 0.42967,-1.07385 v -1.91462 -1.91462 l -0.25826,-0.90052 -0.25827,-0.90052 -0.5816,-0.61909 -0.58161,-0.61909 h -1.10882 -1.10883 l -0.65994,0.51911 -0.65993,0.5191 -0.33585,1.19953 -0.33585,1.19953 0.11947,2.06378 0.11948,2.06378 0.48878,0.82745 0.4888,0.82746 0.55028,0.26701 0.55028,0.26702 0.60845,0.0179 0.60845,0.0179 0.74782,-0.38671 z m -81.875056,-4.56213 2.16868,-7.0897 2.0276,-0.0773 2.02759,-0.0773 v 0.13198 0.13197 l 2.11667,6.88575 2.11667,6.88575 v 0.13716 0.13715 h -1.56305 -1.56305 l -0.33905,-1.32292 -0.33906,-1.32291 h -2.58781 -2.5878 l -0.36534,1.25677 -0.36533,1.25677 -1.4577,0.0782 -1.4577,0.0783 z m 5.87497,1.7077 -0.12842,-0.33073 -0.75352,-2.71105 -0.75353,-2.71106 -0.15042,-9.2e-4 -0.15041,-9.3e-4 -0.74018,2.57969 -0.74017,2.57969 -0.13246,0.46302 -0.13245,0.46302 h 1.90499 1.90499 z m 6.16974,-1.81722 v -7.17504 l 3.3816,0.10536 3.38161,0.10536 0.89021,0.52124 0.89022,0.52124 0.52121,0.6993 0.5212,0.6993 v 1.37952 1.37952 l -0.51905,0.6993 -0.51906,0.69931 -0.63595,0.32659 -0.63595,0.3266 -0.26458,0.12107 -0.26459,0.12106 0.46912,0.2965 0.46911,0.2965 1.44912,2.88945 1.44911,2.88945 v 0.1367 0.1367 l -1.65364,-0.004 -1.65365,-0.004 -1.01738,-2.35478 -1.01737,-2.35477 -0.61038,-0.57342 -0.61038,-0.57342 -0.59053,0.0879 -0.59054,0.0879 0.0502,2.84427 0.0502,2.84427 h -1.46992 l -1.46993,10e-6 z m 5.42304,-1.14191 0.90812,-0.37944 0.1704,-0.67889 0.17039,-0.6789 -0.16837,-0.67081 -0.16836,-0.67082 -0.70479,-0.26796 -0.70479,-0.26796 -1.07376,0.0789 -1.07376,0.0789 0.0662,0.19844 0.0661,0.19844 v 1.71979 1.71979 h 0.80225 0.80225 z m 6.74779,1.14191 v -7.17504 l 3.37344,0.11766 3.37344,0.11766 1.05833,0.45683 1.05833,0.45683 0.72053,0.69014 0.72054,0.69015 0.4343,1.30758 0.43431,1.30759 -0.11367,2.42 -0.11368,2.42001 -0.56654,1.09119 -0.56654,1.0912 -0.8179,0.68822 -0.8179,0.68821 -1.35839,0.4034 -1.35839,0.4034 h -2.73011 -2.7301 z m 6.38028,4.33578 0.69175,-0.40747 0.49888,-0.82404 0.49888,-0.82403 v -2.24896 -2.24896 l -0.60243,-0.96878 -0.60242,-0.96879 -0.82612,-0.28798 -0.82612,-0.28799 h -1.15114 -1.15114 v 4.7184 4.71841 l 0.19676,0.19676 0.19676,0.19676 1.1923,-0.17792 1.1923,-0.17793 z m 19.813466,1.78092 v -1.05834 h 1.5875 1.5875 v -4.89479 -4.89479 h -1.5875 -1.5875 v -1.19062 -1.19063 h 4.7625 4.7625 v 1.19063 1.19062 h -1.72576 -1.72576 l 0.0721,4.82865 0.0721,4.82864 1.65365,0.0788 1.65364,0.0788 v 1.04571 1.04571 h -4.7625 -4.7625 z m 12.17084,-6.09755 v -7.15584 l 1.74246,0.0782 1.74246,0.0782 2.16014,4.6864 2.16015,4.68639 0.20997,0.01 0.20999,0.01 -0.0777,-4.76282 -0.0777,-4.76281 1.32292,2.6e-4 1.32291,2.7e-4 v 7.14375 7.14375 h -1.75542 -1.75542 l -2.20692,-4.7625 -2.20692,-4.7625 -0.1387,-2.7e-4 -0.1387,-2.6e-4 0.0829,4.76283 0.0828,4.76283 h -1.33961 -1.33961 v -7.15584 z m -46.706366,-11.35758 -1.59489,-0.22706 -1.7124,-0.43861 -1.71239,-0.4386 -1.85208,-0.88849 -1.85209,-0.88849 -1.32291,-0.94475 -1.32292,-0.94476 -1.67572,-1.65322 -1.67572,-1.65322 -1.20518,-1.93307 -1.20519,-1.93307 -0.82326,-2.30027 -0.82326,-2.30026 0.008,-4.36563 0.008,-4.36562 0.71314,-2.11667 0.71315,-2.11666 0.99896,-1.7108 0.99896,-1.7108 1.96124,-2.06779 1.96124,-2.06779 1.78803,-1.18868 1.78802,-1.18867 1.85711,-0.76582 1.85712,-0.76581 2.06653,-0.472085 2.06654,-0.47209 3.04271,0.027 3.04271,0.027 1.88262,0.41238 1.88262,0.412385 1.82155,0.68385 1.82154,0.68384 1.71979,1.02201 1.71979,1.02201 2.01101,1.71896 2.01101,1.71897 2.12925,2.6471 2.129256,2.64711 0.30686,0.48764 0.30687,0.48765 0.14048,-0.33521 0.14048,-0.33521 1.78945,-2.31063 1.78946,-2.31062 1.95774,-1.85208 1.95774,-1.85209 1.53616,-1.01644 1.53616,-1.01644 1.903,-0.87826 1.903,-0.87827 1.59669,-0.41288 1.5967,-0.412895 2.59198,-0.28902 2.59198,-0.28903 2.34268,0.28484 2.34267,0.28485 1.80303,0.556205 1.80302,0.55621 1.5875,0.79457 1.5875,0.79458 1.5875,1.12746 1.5875,1.12745 1.37495,1.45643 1.37496,1.45642 1.06398,1.64619 1.06398,1.64618 0.77819,2.02259 0.7782,2.0226 0.2886,1.56994 0.2886,1.56995 v 2.31536 2.31536 l -0.39734,1.88889 -0.39734,1.8889 -0.80914,1.94362 -0.80913,1.94362 -1.06803,1.5426 -1.06804,1.54259 -1.23122,1.28048 -1.23122,1.28049 -1.61098,1.15969 -1.61099,1.15969 -1.96089,0.92906 -1.96089,0.92905 -2.11667,0.56756 -2.11667,0.56757 -3.96875,0.006 -3.96875,0.006 -2.11666,-0.56891 -2.11667,-0.56891 -1.85956,-0.9117 -1.85957,-0.9117 -1.71753,-1.3002 -1.71753,-1.30021 -1.84686,-1.98005 -1.84687,-1.98006 -1.5875,-2.28079 -1.5875,-2.28079 -0.17642,-0.01 -0.17641,-0.01 -1.450816,2.07048 -1.45082,2.07048 -1.53026,1.80378 -1.53026,1.80378 -2.06011,1.62901 -2.06011,1.629 -2.01213,0.99493 -2.01214,0.99492 -2.03068,0.52305 -2.03068,0.52304 -2.91041,0.10746 -2.91042,0.10747 -1.5949,-0.22707 z m 7.83074,-7.57754 1.43708,-0.42639 1.23534,-0.62555 1.23535,-0.62555 1.58942,-1.32273 1.58943,-1.32273 1.70563,-2.1894 1.70563,-2.1894 1.48887,-2.28953 1.48887,-2.28952 v -0.30031 -0.30031 l -1.59781,-2.37629 -1.59782,-2.3763 -1.57445,-1.82932 -1.57445,-1.82932 -1.52409,-1.17178 -1.52408,-1.17177 -1.5875,-0.79567 -1.5875,-0.79566 -1.7367,-0.43138 -1.7367,-0.43138 h -2.3749 -2.3749 l -1.55255,0.40439 -1.55255,0.40438 -1.77972,0.93522 -1.77973,0.93522 -1.58199,1.57222 -1.582,1.57222 -0.80463,1.51995 -0.80462,1.51994 -0.42211,1.43709 -0.42211,1.43708 v 2.02062 2.02063 l 0.42211,1.43708 0.42211,1.43709 0.81923,1.54735 0.81924,1.54736 1.55007,1.53571 1.55006,1.5357 1.80539,0.94871 1.8054,0.9487 1.42246,0.38259 1.42247,0.38259 3.06083,0.0174 3.06083,0.0174 1.43709,-0.42638 z m -11.92438,-13.99341 v -1.45521 h 7.40834 7.40833 v 1.45521 1.4552 h -7.40833 -7.40834 z m 56.714936,14.00064 1.62569,-0.41916 1.5875,-0.83055 1.5875,-0.83056 1.78602,-1.76571 1.78602,-1.76571 0.9487,-1.99769 0.94869,-1.99768 0.28884,-1.86606 0.28884,-1.86607 -0.28884,-1.86606 -0.28884,-1.86607 -0.94869,-1.99768 -0.9487,-1.99768 -1.78602,-1.78417 -1.78602,-1.78418 -1.98437,-0.94627 -1.98438,-0.94627 -1.65753,-0.32016 -1.65752,-0.32016 -2.57581,0.13914 -2.5758,0.13914 -1.75242,0.55778 -1.75241,0.55778 -1.95176,1.29102 -1.95175,1.29101 -1.6137,1.68527 -1.6137,1.68527 -1.19323,1.5875 -1.19323,1.5875 -0.98277,1.53895 -0.98277,1.53895 2.30961,3.48813 2.3096,3.48814 2.40614,2.38134 2.40614,2.38133 1.50488,0.75073 1.50488,0.75073 1.27324,0.35 1.27325,0.35001 3.00451,0.0237 3.00452,0.0237 1.62569,-0.41915 z m -6.97327,-9.8996 v -2.11667 h -1.98437 -1.98438 v -1.98437 -1.98438 h 1.98438 1.98437 v -1.98437 -1.98438 h 1.98438 1.98437 v 1.98438 1.98437 h 2.11667 2.11667 v 1.98438 1.98437 h -2.11667 -2.11667 v 2.11667 2.11666 h -1.98437 -1.98438 z m 20.41256,-21.87487 -0.0396,-0.8405 -0.46302,-0.121 -0.46302,-0.121 0.92604,-0.0266 0.92604,-0.0266 -0.30685,0.19525 -0.30686,0.19524 -0.11652,0.79289 -0.11652,0.79289 z m 1.14444,0.17903 0.13161,-0.66145 0.0117,-0.39688 0.0117,-0.39687 0.28731,0.49452 0.28732,0.49453 -0.25569,0.16693 -0.25569,0.16693 -0.1749,0.39688 -0.1749,0.39687 0.13162,-0.66146 z m 0.668,0.26459 v -0.26459 h 0.26459 0.26458 v 0.26459 0.26458 h -0.26458 -0.26459 z m 1.05834,-0.11025 v -0.37482 l -0.27973,-0.0932 -0.27972,-0.0932 0.17516,-0.45645 0.17515,-0.45645 0.17905,0.11065 0.17905,0.11066 0.062,0.81387 0.062,0.81386 h -0.1365 -0.13649 z"
       id="path5421" />
  </g>
</svg>
